<?xml version="1.0" encoding="UTF-8"?>
<svg id="Layer_1" xmlns="http://www.w3.org/2000/svg" version="1.1" viewBox="0 0 924.4 201.7">
  <!-- Generator: Adobe Illustrator 29.1.0, SVG Export Plug-In . SVG Version: 2.1.0 Build 142)  -->
  <defs>
    <style>
      .st0 {
        opacity: .3;
      }

      .st0, .st1 {
        fill: #424770;
        fill-rule: evenodd;
        isolation: isolate;
      }

      .st1 {
        opacity: .5;
      }
    </style>
  </defs>
  <path class="st0" d="M876.5,201.7H46.5c-25.7,0-46.5-20.8-46.5-46.5V46.5C0,20.8,20.8,0,46.5,0h830c25.7,0,46.5,20.8,46.5,46.5v108.6c0,25.7-20.8,46.5-46.5,46.5ZM915.3,46.5c0-21.4-17.4-38.8-38.8-38.8H46.5C25.1,7.8,7.8,25.1,7.8,46.5v108.6c0,21.4,17.4,38.8,38.8,38.8h830c21.4,0,38.8-17.4,38.8-38.8V46.5Z"/>
  <path class="st1" d="M470.8,143h-10.1l7.8-19.3-15.6-39.3h10.7l9.8,26.8,9.9-26.8h10.7l-23.2,58.7ZM432,126.1c-3.5,0-7.1-1.3-10.4-3.8v2.9h-10.4v-58.7h10.4v20.7c3.3-2.5,6.9-3.8,10.4-3.8,10.9,0,18.4,8.8,18.4,21.4s-7.5,21.4-18.4,21.4h0ZM429.8,92.3c-2.9,0-5.7,1.2-8.2,3.7v17.5c2.4,2.4,5.3,3.7,8.2,3.7,5.9,0,10-5.1,10-12.4s-4.1-12.4-10-12.4h0ZM368.9,122.3c-3.2,2.5-6.8,3.8-10.4,3.8-10.9,0-18.4-8.8-18.4-21.4s7.6-21.4,18.4-21.4,7.2,1.3,10.4,3.8v-20.7h10.5v58.7h-10.5v-2.9ZM368.9,96c-2.4-2.5-5.2-3.7-8.1-3.7-6,0-10,5.1-10,12.4s4.1,12.4,10,12.4,5.7-1.2,8.1-3.7v-17.5ZM306.7,107.6c.7,6.2,5.6,10.4,12.4,10.4s7.9-1.4,12.2-3.8v8.7c-4.6,2.1-9.3,3.2-13.9,3.2-12.3,0-21-9-21-21.7s8.5-21.1,20.2-21.1,18,8.4,18,20.4,0,2.5-.2,3.8h-27.7ZM316.1,91.4c-5.1,0-9,3.8-9.5,9.4h17.8c-.3-5.6-3.7-9.4-8.3-9.4h0ZM279.2,97.9v27.3h-10.4v-40.8h10.4v4.1c2.9-3.3,6.5-5.1,10-5.1s2.3,0,3.4.4v9.3c-1.1-.3-2.4-.5-3.7-.5-3.4,0-7.1,1.9-9.8,5.3ZM232.5,107.6c.7,6.2,5.5,10.4,12.4,10.4s7.9-1.4,12.2-3.8v8.7c-4.7,2.1-9.3,3.2-13.9,3.2-12.3,0-21-9-21-21.7s8.5-21.1,20.2-21.1,18,8.4,18,20.4,0,2.5-.2,3.8h-27.7ZM242,91.4c-5.1,0-9,3.8-9.5,9.4h17.8c-.3-5.6-3.7-9.4-8.3-9.4ZM196,125.1l-8.3-27.8-8.2,27.8h-9.4l-14-40.8h10.4l8.2,27.8,8.2-27.8h9.5l8.2,27.8,8.2-27.8h10.4l-14,40.8h-9.4ZM132.2,126.1c-12.3,0-21.1-8.9-21.1-21.4s8.7-21.4,21.1-21.4,21,8.8,21,21.4-8.7,21.4-21,21.4ZM132.2,92.1c-6.1,0-10.4,5.1-10.4,12.7s4.2,12.7,10.4,12.7,10.3-5.1,10.3-12.7-4.2-12.7-10.3-12.7ZM86.3,105h-9.4v20.2h-10.4v-56.2h19.8c11.4,0,19.6,7.4,19.6,18s-8.2,18-19.6,18h0ZM84.9,77.5h-7.9v19h7.9c6,0,10.3-3.8,10.3-9.5s-4.2-9.5-10.3-9.5ZM861.9,109h-43.1c1,10.3,8.5,13.4,17.1,13.4s15.6-1.8,21.6-4.9v17.7c-6,3.3-13.9,5.7-24.4,5.7-21.5,0-36.5-13.4-36.5-40s12.8-40.2,33.7-40.2,31.8,17.8,31.8,40.4-.2,6.7-.3,7.9ZM830.2,78.7c-5.5,0-11.6,4.2-11.6,14.1h22.8c0-9.9-5.7-14.1-11.1-14.1ZM761,140.9c-7.7,0-12.4-3.3-15.6-5.6v24.9s-22.1,4.7-22.1,4.7V62.2s19.4,0,19.4,0l1.1,5.4c3-2.8,8.6-6.9,17.3-6.9,15.5,0,30,13.9,30,39.6s-14.4,40.7-30.2,40.7h0ZM755.9,80.2c-5,0-8.2,1.8-10.5,4.4v32.7c2.3,2.3,5.4,4.2,10.5,4.2,8.1,0,13.6-8.9,13.6-20.7s-5.5-20.5-13.6-20.5h0ZM691.5,62.2h22.1v77.2h-22.1V62.2ZM691.5,37.5l22.1-4.7v17.9l-22.1,4.7v-17.9ZM668,87v52.3h-22V62.2h19l1.4,6.5c5.2-9.5,15.5-7.6,18.4-6.5v20.2c-2.8-.9-11.6-2.2-16.8,4.6h0ZM620.7,112.3c0,13,13.9,8.9,16.7,7.8v17.9c-2.9,1.6-8.3,2.9-15.5,2.9-13.1,0-22.9-9.6-22.9-22.7V47.6c.1,0,21.6-4.6,21.6-4.6v19.1h16.7v18.8h-16.7v31.3ZM593.3,116c0,15.9-12.6,24.9-30.9,24.9s-15.9-1.5-24.1-5v-21c7.4,4,16.8,7,24.1,7s8.4-1.3,8.4-5.4c0-10.5-33.5-6.6-33.5-30.9s11.9-24.9,29.8-24.9,14.6,1.1,21.9,4v20.7c-6.7-3.6-15.2-5.7-21.9-5.7s-7.5,1.3-7.5,4.8c0,9.9,33.7,5.2,33.7,31.5Z"/>
</svg>